<?xml version="1.0" encoding="iso-8859-1"?>
<!-- Uploaded to: SVG Repo, www.svgrepo.com, Generator: SVG Repo Mixer Tools -->
<!DOCTYPE svg PUBLIC "-//W3C//DTD SVG 1.1//EN" "http://www.w3.org/Graphics/SVG/1.1/DTD/svg11.dtd">
<svg fill="#000000" version="1.1" id="Capa_1" xmlns="http://www.w3.org/2000/svg" xmlns:xlink="http://www.w3.org/1999/xlink" 
	 width="800px" height="800px" viewBox="0 0 54.308 54.308"
	 xml:space="preserve">
<g>
	<path d="M53.583,25.901c-5.448-9.412-15.575-15.259-26.429-15.259S6.173,16.489,0.725,25.902L0,27.154l0.725,1.251
		c5.448,9.413,15.575,15.26,26.429,15.26s20.981-5.849,26.429-15.26l0.725-1.253L53.583,25.901z M27.753,36.83
		c-5.342,0-9.688-4.347-9.688-9.688s4.346-9.688,9.688-9.688c2.301,0,4.461,0.799,6.168,2.222c-2.468,1.572-4.067,4.327-4.067,7.466
		c0,3.141,1.6,5.895,4.068,7.466C32.214,36.031,30.053,36.83,27.753,36.83z M5.827,27.154c2.587-3.927,6.189-7.012,10.333-8.998
		c-1.932,2.487-3.095,5.6-3.095,8.986c0,3.402,1.173,6.53,3.123,9.023C12.032,34.18,8.42,31.09,5.827,27.154z M40.052,35.134
		c0.079-0.121,0.161-0.239,0.237-0.363l2.099-3.441l-4.019-0.35c-1.971-0.172-3.516-1.857-3.516-3.838
		c0-1.981,1.545-3.666,3.516-3.837l4.02-0.349l-2.1-3.443c-0.068-0.111-0.143-0.215-0.213-0.324c3.33,1.96,6.229,4.662,8.404,7.965
		C46.299,30.465,43.393,33.172,40.052,35.134z"/>
</g>
</svg>